<?xml version="1.0" encoding="UTF-8" standalone="no"?>
<!-- Created with Inkscape (http://www.inkscape.org/) -->

<svg
   xmlns:dc="http://purl.org/dc/elements/1.1/"
   xmlns:cc="http://creativecommons.org/ns#"
   xmlns:rdf="http://www.w3.org/1999/02/22-rdf-syntax-ns#"
   xmlns:svg="http://www.w3.org/2000/svg"
   xmlns="http://www.w3.org/2000/svg"
   xmlns:sodipodi="http://sodipodi.sourceforge.net/DTD/sodipodi-0.dtd"
   xmlns:inkscape="http://www.inkscape.org/namespaces/inkscape"
   width="307.53998"
   height="257.06744"
   id="svg3098"
   version="1.1"
   inkscape:version="0.91 r13725"
   sodipodi:docname="bitcoin_key_in_fist.svg">
  <defs
     id="defs3100" />
  <sodipodi:namedview
     id="base"
     pagecolor="#ffffff"
     bordercolor="#666666"
     borderopacity="1.0"
     inkscape:pageopacity="0.0"
     inkscape:pageshadow="2"
     inkscape:zoom="3.2833039"
     inkscape:cx="166.88512"
     inkscape:cy="130.05193"
     inkscape:document-units="px"
     inkscape:current-layer="layer1"
     showgrid="false"
     inkscape:window-width="1920"
     inkscape:window-height="1028"
     inkscape:window-x="-8"
     inkscape:window-y="-8"
     inkscape:window-maximized="1"
     fit-margin-top="0"
     fit-margin-left="0"
     fit-margin-right="0"
     fit-margin-bottom="0" />
  <metadata
     id="metadata3103">
    <rdf:RDF>
      <cc:Work
         rdf:about="">
        <dc:format>image/svg+xml</dc:format>
        <dc:type
           rdf:resource="http://purl.org/dc/dcmitype/StillImage" />
        <dc:title></dc:title>
      </cc:Work>
    </rdf:RDF>
  </metadata>
  <g
     inkscape:label="Layer 1"
     inkscape:groupmode="layer"
     id="layer1"
     transform="translate(-84.635046,-311.94399)">
    <path
       style="display:none;fill:#00ff00;stroke:none"
       inkscape:connector-curvature="0"
       display="none"
       d="m -51.9274,1211.4308 c 0,0 -19.0836,-0.022 -0.6989,-132.6935 C -34.2417,946.066 -24.045,899.1052 -5.3234,791.0001 1.7346,774.8563 -73.7096,698.777 -134.2387,593.2597 -195.9902,485.6117 -277.9101,357.4473 -322.9681,312.8139 c 0,0 174.6051,-335.4541 237.819,-349.6864 0,0 301.3812,108.86 337.0663,144.5451 0,0 -1.6885,91.6752 -28.6427,104.2204 -26.9543,12.5452 -108.8787,44.596 -154.5442,34.6042 0,0 -66.5129,-72.4035 -90.3392,-83.5027 0,0 -6.2708,4.3005 1.4514,23.8679 7.7223,19.5674 -10.4012,69.4088 -39.2782,89.5321 0,0 -21.8448,3.1385 -20.069,6.7997 1.7759,3.6612 5.1862,8.7151 30.2112,12.0414 25.0249,3.3263 41.4226,16.8926 51.1404,21.7706 9.7179,4.8781 39.9987,16.8593 64.2749,23.7075 0,0 237.1202,313.2578 237.1202,342.053 0,0 -71.9669,66.2099 -101.9054,69.0026 0,0 -4.9395,0.036 0,4.9752 4.9395,4.9394 64.5757,-0.9453 70.8878,5.3668 6.3121,6.3121 2.0121,22.6842 6.6121,38.0059 4.6,15.3218 22.4229,131.2911 18.4923,150.0347 0,0 -2.1134,15.7976 3.9779,28.4371 2.6931,15.3368 7.0638,82.1619 5.3597,88.0372 -1.7042,5.8755 3.834,11.4138 3.834,11.4138 0,0 6.1136,-2.9048 6.1136,-14.1914 0,-11.2867 -14.7137,-261.0466 -3.911,-270.7197 0,0 10.1158,-12.895 18.9054,-12.895 8.7897,0 24.7629,-16.0286 32.1096,-20.0052 0,0 4.1583,-5.0769 -6.9741,-10.9508 -11.1323,-5.8739 -31.7252,-18.7007 -41.3689,-59.7083 -11.6437,-20.0076 -24.2794,-66.0872 -42.3224,-107.9173 -18.043,-41.8301 -13.7299,-36.4236 -13.7299,-36.4236 0,0 -95.3713,-114.5455 -124.6481,-153.1061 0,0 -16.1036,-21.2645 0,-20.3709 16.1036,0.8935 144.0354,21.6741 160.3262,34.7954 0,0 53.0165,4.6835 81.2068,39.6826 32.7279,29.0347 57.3043,56.3031 68.4141,60.4844 0,0 8.8715,5.9367 12.4072,14.309 3.5357,8.3723 10.1061,8.5808 13.7668,3.4523 3.6608,-5.1286 12.3208,-17.4926 16.6698,-17.4926 4.3491,0 116.9965,-105.4218 123.0477,-105.4218 6.0514,0 12.3269,-9.6339 14.3142,6.1003 1.9872,15.7341 -14.4666,140.5987 -25.387,151.5191 -1.9001,9.1588 -23.234,109.7161 -34.1799,133.0906 -10.9459,23.3745 -15.9235,16.6872 -38.3097,46.5308 0,0 -18.4618,35.0239 -29.6478,46.21 -11.186,11.1861 -20.6222,22.6746 -22.309,29.0284 -1.6869,6.3539 -13.3855,144.1783 -8.6575,181.5168 0,39.3384 0.7406,137.007 -2.4326,150.9333 -3.1732,13.9263 -6.3809,32.405 -6.3809,48.0717 0,0 1.8606,13.4637 -7.7947,14.3201 -9.6553,0.8564 -501.6557,2.5487 -501.6557,2.5487 z"
       id="path3" />
    <path
       style="display:none;fill:#ff0000"
       d="m -51.9274,1211.4308 c 0,0 -19.0836,-0.022 -0.6989,-132.6935 C -34.2417,946.066 -24.045,899.1052 -5.3234,791.0001 1.7346,774.8563 -73.7096,698.777 -134.2387,593.2597 -195.9902,485.6117 -277.9101,357.4473 -322.9681,312.8139 c 0,0 174.6051,-335.4541 237.819,-349.6864 0,0 301.3812,108.86 337.0663,144.5451 0,0 -1.6885,91.6752 -28.6427,104.2204 -26.9543,12.5452 -108.8787,44.596 -154.5442,34.6042 0,0 -66.5129,-72.4035 -90.3392,-83.5027 0,0 -6.2708,4.3005 1.4514,23.8679 7.7223,19.5674 -10.4012,69.4088 -39.2782,89.5321 0,0 -21.8448,3.1385 -20.069,6.7997 1.7759,3.6612 5.1862,8.7151 30.2112,12.0414 25.0249,3.3263 41.4226,16.8926 51.1404,21.7706 9.7179,4.8781 39.9987,16.8593 64.2749,23.7075 0,0 237.1202,313.2578 237.1202,342.053 0,0 -71.9669,66.2099 -101.9054,69.0026 0,0 -4.9395,0.036 0,4.9752 4.9395,4.9394 64.5757,-0.9453 70.8878,5.3668 6.3121,6.3121 2.0121,22.6842 6.6121,38.0059 4.6,15.3218 22.4229,131.2911 18.4923,150.0347 0,0 -2.1134,15.7976 3.9779,28.4371 2.6931,15.3368 7.0638,82.1619 5.3597,88.0372 -1.7042,5.8755 3.834,11.4138 3.834,11.4138 0,0 6.1136,-2.9048 6.1136,-14.1914 0,-11.2867 -14.7137,-261.0466 -3.911,-270.7197 0,0 10.1158,-12.895 18.9054,-12.895 8.7897,0 24.7629,-16.0286 32.1096,-20.0052 0,0 4.1583,-5.0769 -6.9741,-10.9508 -11.1323,-5.8739 -31.7252,-18.7007 -41.3689,-59.7083 -11.6437,-20.0076 -24.2794,-66.0872 -42.3224,-107.9173 -18.043,-41.8301 -13.7299,-36.4236 -13.7299,-36.4236 0,0 -95.3713,-114.5455 -124.6481,-153.1061 0,0 -16.1036,-21.2645 0,-20.3709 16.1036,0.8935 144.0354,21.6741 160.3262,34.7954 0,0 53.0165,4.6835 81.2068,39.6826 32.7279,29.0347 57.3043,56.3031 68.4141,60.4844 0,0 8.8715,5.9367 12.4072,14.309 3.5357,8.3723 10.1061,8.5808 13.7668,3.4523 3.6608,-5.1286 12.3208,-17.4926 16.6698,-17.4926 4.3491,0 116.9965,-105.4218 123.0477,-105.4218 6.0514,0 12.3269,-9.6339 14.3142,6.1003 1.9872,15.7341 -14.4666,140.5987 -25.387,151.5191 -1.9001,9.1588 -23.234,109.7161 -34.1799,133.0906 -10.9459,23.3745 -15.9235,16.6872 -38.3097,46.5308 0,0 -18.4618,35.0239 -29.6478,46.21 -11.186,11.1861 -20.6222,22.6746 -22.309,29.0284 -1.6869,6.3539 -13.3855,144.1783 -8.6575,181.5168 0,39.3384 0.7406,137.007 -2.4326,150.9333 -3.1732,13.9263 -6.3809,32.405 -6.3809,48.0717 0,0 1.8606,13.4637 -7.7947,14.3201 -9.6553,0.8564 -501.6557,2.5487 -501.6557,2.5487 z"
       id="path3451"
       inkscape:connector-curvature="0" />
    <g
       transform="translate(-1277.9807,-322.38862)"
       id="g3462">
      <path
         style="display:none;fill:#ff0000"
         inkscape:connector-curvature="0"
         display="none"
         d="m 1044.0077,1522.5356 c 0,0 -19.0836,-0.022 -0.6989,-132.6935 18.3846,-132.6713 28.5813,-179.6321 47.3029,-287.7372 7.058,-16.1438 -68.3862,-92.2231 -128.9153,-197.7404 C 899.9449,796.7165 818.025,668.5521 772.967,623.9187 c 0,0 174.6051,-335.4541 237.819,-349.6864 0,0 301.3812,108.86 337.0663,144.5451 0,0 -1.6885,91.6752 -28.6427,104.2204 -26.9543,12.5452 -108.8787,44.596 -154.5442,34.6042 0,0 -66.5129,-72.4035 -90.3392,-83.5027 0,0 -6.2708,4.3005 1.4514,23.8679 7.7223,19.5674 -10.4012,69.4088 -39.2782,89.5321 0,0 -21.8448,3.1385 -20.069,6.7997 1.7759,3.6612 5.1862,8.7151 30.2112,12.0414 25.0249,3.3263 41.4226,16.8926 51.1404,21.7706 9.7179,4.8781 39.9987,16.8593 64.2749,23.7075 0,0 237.1202,313.2578 237.1202,342.053 0,0 -71.9669,66.2099 -101.9054,69.0026 0,0 -4.9395,0.036 0,4.9752 4.9395,4.9394 64.5757,-0.9453 70.8878,5.3668 6.3121,6.3121 2.0121,22.6842 6.6121,38.0059 4.6,15.3218 22.4229,131.2911 18.4923,150.0347 0,0 -2.1134,15.7976 3.9779,28.4371 2.6931,15.3368 7.0638,82.1619 5.3597,88.0372 -1.7042,5.8755 3.834,11.4138 3.834,11.4138 0,0 6.1136,-2.9048 6.1136,-14.1914 0,-11.2867 -14.7137,-261.0466 -3.911,-270.7197 0,0 10.1158,-12.895 18.9054,-12.895 8.7897,0 24.7629,-16.0286 32.1096,-20.0052 0,0 4.1583,-5.0769 -6.9741,-10.9508 -11.1323,-5.8739 -31.7252,-18.7007 -41.3689,-59.7083 -11.6437,-20.0076 -24.2794,-66.0872 -42.3224,-107.9173 -18.043,-41.8301 -13.7299,-36.4236 -13.7299,-36.4236 0,0 -95.3713,-114.5455 -124.6481,-153.1061 0,0 -16.1036,-21.2645 0,-20.3709 16.1036,0.8935 144.0354,21.6741 160.3262,34.7954 0,0 53.0165,4.6835 81.2068,39.6826 32.7279,29.0347 57.3043,56.3031 68.4141,60.4844 0,0 8.8715,5.9367 12.4072,14.309 3.5357,8.3723 10.1061,8.5808 13.7668,3.4523 3.6608,-5.1286 12.3208,-17.4926 16.6698,-17.4926 4.3491,0 116.9965,-105.4218 123.0477,-105.4218 6.0514,0 12.3269,-9.6339 14.3142,6.1003 1.9872,15.7341 -14.4666,140.5987 -25.387,151.5191 -1.9001,9.1588 -23.234,109.7161 -34.1799,133.0906 -10.9459,23.3745 -15.9235,16.6872 -38.3097,46.5308 0,0 -18.4618,35.0239 -29.6478,46.21 -11.186,11.1861 -20.6222,22.6746 -22.309,29.0284 -1.6869,6.3539 -13.3855,144.1783 -8.6575,181.5168 0,39.3384 0.7406,137.007 -2.4326,150.9333 -3.1732,13.9263 -6.3809,32.405 -6.3809,48.0717 0,0 1.8606,13.4637 -7.7947,14.3201 -9.6553,0.8564 -501.6557,2.5487 -501.6557,2.5487 z"
         id="path3464" />
      <g
         id="g3466"
         style="fill:#00ff00;stroke:none" />
    </g>
    <path
       style="fill:#000000;stroke:none"
       d="m 111.06445,46.208984 c -2.0787,0.0519 -4.1118,1.09646 -5.3125,2.96875 l -10.218747,15.9375 c -1.0304,1.6068 -4.44415,4.53504 -3.96875,6.25 0.4109,1.48232 3.82995,3.20313 5.21875,4.09375 l 13.156247,5.65625 c 2.9956,1.92099 5.67275,1.05814 7.59375,-1.9375 l 10.1875,-15.90625 c 0.8565,-1.33574 2.1964,-3.22073 2,-4.6875 -0.2439,-1.82275 -2.2776,-3.18557 -3.9375,-4.25 l -11.09375,-7.125 c -1.1234,-0.72038 -2.3777,-1.03114 -3.625,-1 z m 25.5,12.65625 c -2.1871,0.017 -4.3004,1.12128 -5.5,3.125 l -9.5625,15.96875 c -0.9707,1.62133 -3.2588,4.25091 -2.75,5.9375 0.4494,1.48963 3.53685,2.0802 4.96875,2.9375 2.2629,1.16813 10.73195,3.43797 10.84375,6.46875 0.1263,3.42537 -3.22415,9.716466 -0.84375,13.374996 1.1972,0.71679 4.88305,-4.12156 7.28125,-7.656246 1.0313,-1.52008 2.20755,-2.45598 2.59375,-2.9375 0.9123,-1.13739 1.91575,-1.94007 2.71875,-3.28125 l 9.5625,-15.9375 c 1.828,-3.0533 0.83455,-7.04701 -2.21875,-8.875 l -13.71875,-8.21875 c -1.0496,-0.62837 -2.2293,-0.91514 -3.375,-0.90625 z m -50.749997,14.875 c -0.15143,0.008 -0.31393,0.0089 -0.46875,0.03125 -1.47272,0.45237 -2.77554,1.15068 -3.96875,2 -0.0769,0.0649 -0.17221,0.11987 -0.25,0.1875 -1.79848,1.56356 -3.8325,3.82714 -5.96875,6.5625 -2.00209,2.87071 -3.80381,5.92382 -5.9375,8.375 -8.31476,12.535886 -16.25,27.823556 -16.25,30.937496 0,5.51882 17.46765,23.80544 25.96875,38.625 8.3328,14.5262 18.7216,24.99629 17.75,27.21875 -2.5774,14.88246 -3.969,21.32937 -6.5,39.59375 -2.5309,18.26444 0.09375,18.28125 0.09375,18.28125 0,0 67.733197,-0.22585 69.062497,-0.34375 1.3292,-0.1179 1.0625,-2 1.0625,-2 0,-2.15679 0.4382,-4.67657 0.875,-6.59375 0.4368,-1.9172 0.34375,-15.36566 0.34375,-20.78125 -0.6509,-5.14025 0.9553,-24.12528 1.1875,-25 0.2323,-0.87472 1.55385,-2.46006 3.09375,-4 1.54,-1.53993 4.0625,-6.34375 4.0625,-6.34375 3.0818,-4.10847 3.77435,-3.18836 5.28125,-6.40625 1.03581,-2.21206 2.5306,-9.35086 3.59375,-14.0625 -5.24529,-3.25701 -10.42521,-6.6741 -15.71875,-9.8125 l -0.875,0.78125 c -0.504,0.70604 -1.41945,0.6526 -1.90625,-0.5 -0.4867,-1.1526 -1.71875,-1.96875 -1.71875,-1.96875 -1.5294,-0.57564 -4.90075,-4.3154 -9.40625,-8.3125 -3.8809,-4.8182 -8.6393,-4.45753 -11.1875,-5.46875 -2.5482,-1.0112 -19.8456,-4.65823 -22.0625,-4.78125 -2.2169,-0.123 0,2.78125 0,2.78125 4.0212,5.29636 17.09645,20.99068 17.15625,21.0625 -0.08,-0.0637 -0.26715,-0.007 1.90625,5.03125 2.4839,5.7586 4.2096,12.12062 5.8125,14.875 1.3276,5.64538 4.1549,7.41013 5.6875,8.21875 1.5325,0.80864 0.96875,1.5 0.96875,1.5 -1.0114,0.54748 -3.19625,2.75 -4.40625,2.75 -1.21,0 -2.625,1.78125 -2.625,1.78125 -1.4872,1.33167 0.5625,35.72744 0.5625,37.28125 0,1.55378 -0.84375,1.9375 -0.84375,1.9375 0,0 -0.76585,-0.75364 -0.53125,-1.5625 0.2346,-0.80886 -0.3793,-10.01365 -0.75,-12.125 -0.83855,-1.74005 -0.53125,-3.90625 -0.53125,-3.90625 0.5411,-2.58034 -1.9293,-18.54695 -2.5625,-20.65625 -0.6333,-2.10929 -0.0375,-4.38104 -0.90625,-5.25 -0.8689,-0.86897 -9.07,-0.0388 -9.75,-0.71875 -0.68,-0.67998 0,-0.6875 0,-0.6875 4.1216,-0.38445 13.4681,-7.32396 13.5,-9.40625 0.032,-2.08229 -29.3869,-45.57974 -32.125,-47.1875 -2.738,-1.60777 -7.505847,-2.57846 -8.843747,-3.25 -1.3378,-0.67155 -3.58615,-2.54209 -7.03125,-3 -3.4451,-0.45792 -3.91175,-1.15223 -4.15625,-1.65625 -0.2445,-0.50403 2.75,-0.9375 2.75,-0.9375 3.9754,-2.7703 6.46935,-9.64998 5.40625,-12.34375 -1.0631,-2.69378 -0.1875,-3.28125 -0.1875,-3.28125 3.2801,1.52799 12.437497,11.5 12.437497,11.5 6.2866,1.37555 17.5393,-3.05419 21.25,-4.78125 3.7107,-1.72705 4.60115,-12.179666 3.96875,-14.343746 -0.2631,-0.90034 -7.27809,-4.33557 -15.75,-8.09375 -0.31133,-0.0678 -0.6368,-0.17917 -0.90625,-0.375 -7.51051,-3.31047 -15.932497,-6.77709 -22.124997,-9.03125 0.21098,0.42886 0.45237,0.84528 0.65625,1.25 -1.50185,-0.64224 -2.91647,-1.74478 -4.40625,-2.5625 -0.046,-0.015 -0.0796,-0.01645 -0.125,-0.03125 -1.5937,-0.51796 -2.8393,-0.86507 -3.65625,-1 z m 73.062497,7.5 c -1.8667,0.0408 -3.6965,0.86681 -4.9375,2.4375 l -24.5625,35.156246 c -2.2062,2.79234 -1.7299,6.88761 1.0625,9.09375 l 11.5625,5.53125 c 2.7923,2.20612 6.88755,1.72983 9.09375,-1.0625 l 23.75,-30.0625 c 2.2061,-2.792338 1.7299,-6.887626 -1.0625,-9.093746 l -10.75,-10.625 c -1.2216,-0.96519 -2.70425,-1.40673 -4.15625,-1.375 z m -42.21875,1.78125 c -0.96483,0.14458 0.28385,0.90069 0,0 z m 63.28125,19.281246 c -0.5524,0.0164 -1.0914,0.19935 -1.5,0.59375 l -26.4375,31.6875 c -1.6343,1.57759 -1.82955,4.08796 -0.40625,5.5625 l 7.21875,7.46875 c 1.4234,1.47456 3.9282,1.39009 5.5625,-0.1875 l 28.9375,-27.9375 c 1.6343,-1.5776 1.7983,-4.08795 0.375,-5.5625 l -8.96875,-9.1875 c -1.0675,-1.10591 -3.12385,-2.48675 -4.78125,-2.4375 z m -49.125,8.125 -15.375,4.25 c -2.5468,0.68833 -7.98245,2.3625 -9.53125,-0.21875 -1.5487,-2.58125 -1.58855,-3.29107 -3.53125,-3.1875 -3.196891,0.63065 -2.3702,3.38197 -1.625,4.25 1.5067,1.75494 11.74525,8.63801 17.15625,10.53125 0.6636,0.23216 1.2347,-0.17317 2.25,-1.6875 1.0153,-1.51433 9.92715,-11.50013 10.71875,-12.6875 0.6195,-1.22179 -0.0625,-1.25 -0.0625,-1.25 z"
       transform="translate(112.14773,323.45871)"
       id="path3627"
       inkscape:connector-curvature="0" />
    <path
       style="fill:#000000"
       d="m 75.402344,3.0371094 c -2.58481,-0.034 -5.139553,1.1765875 -6.726563,3.4609375 -0.50902,0.73269 -0.845311,1.5288537 -1.082031,2.3398437 -16.70008,-7.68117 -36.579113,-3.8785018 -49.277344,9.5175784 -0.486608,-0.62384 -1.041064,-1.21126 -1.726562,-1.6875 C 12.93489,14.128799 7.9181152,15.03254 5.3789062,18.6875 c -2.526183,3.6545 -1.6194959,8.667151 2.03125,11.207031 0.779861,0.54179 1.6339302,0.895456 2.5019532,1.128907 -6.962023,16.176069 -3.3155267,35.126803 9.2089846,47.595703 -0.677413,0.50481 -1.309362,1.099361 -1.81836,1.832031 -2.538918,3.65452 -1.633471,8.669784 2.021485,11.208984 3.65451,2.53889 8.669774,1.637382 11.208984,-2.017578 0.50901,-0.73267 0.845761,-1.530497 1.082031,-2.341797 14.02485,6.44956 30.316609,4.826418 42.699219,-3.794922 l 7.318359,5.085938 3.552735,-5.111328 5.410156,3.759765 2.505859,-3.607422 13.710938,9.523438 6.36133,-6.199219 L 98.103516,76.421875 100.61133,72.8125 95.199219,69.052734 98.75,63.939453 91.300781,58.765625 c 3.74215,-14.58978 -0.2853,-30.369707 -11.21289,-41.248047 0.67786,-0.50452 1.307406,-1.097408 1.816406,-1.830078 2.53921,-3.65497 1.634969,-8.6700844 -2.019531,-11.2089844 -1.3706,-0.9522 -2.931522,-1.4209962 -4.482422,-1.4414062 z m -41.470703,21.0898436 1.228515,0.882813 -0.457031,0.632812 c -0.51428,0.715 -0.346357,1.627505 0.501953,2.734375 0.42254,0.55367 1.5385,1.501305 3.22461,2.771485 0.49898,-0.52969 0.977099,-1.006894 1.412109,-1.376954 2.33201,-1.96675 4.836795,-2.916109 7.515625,-2.849609 2.07041,0.06212 3.887329,0.653934 5.449219,1.777344 3.61081,2.59716 4.155941,7.079718 1.638671,13.449219 3.075081,-2.68096 5.627091,-4.297913 7.65625,-4.851563 2.88124,-0.78172 5.541363,-0.296492 7.976563,1.455078 2.58634,1.86028 3.967691,4.421984 4.144531,7.683594 0.15125,2.73493 -0.594862,5.679292 -2.195312,8.826172 0.73231,0.48884 1.371797,0.900127 1.748047,1.091797 1.64918,0.83328 2.804137,0.795962 3.460937,-0.117188 l 0.455078,-0.634766 1.228516,0.882813 -5.400391,7.507813 -1.228515,-0.882813 0.447265,-0.619141 c 0.52048,-0.72362 0.356113,-1.639213 -0.492187,-2.746093 -0.27886,-0.3635 -0.964128,-0.961096 -1.835938,-1.666016 -0.34372,0.53147 -0.70366,1.067025 -1.09375,1.609375 l -3.771484,5.242188 c 0.59249,0.388149 1.118102,0.719968 1.445312,0.886718 1.64918,0.83328 2.802195,0.792046 3.458985,-0.121094 l 0.455078,-0.632812 1.228515,0.882812 -5.40039,7.507813 -1.228516,-0.882813 0.447266,-0.61914 c 0.52048,-0.72363 0.356102,-1.639234 -0.492188,-2.746094 -0.27476,-0.35816 -0.94819,-0.948378 -1.80664,-1.642578 l -6.820313,9.482422 -0.933593,-0.671875 c 1.739499,-2.4184 2.269507,-4.269121 1.585937,-5.550781 -0.31321,-0.55656 -1.394798,-1.497382 -3.242187,-2.826172 L 32.074219,52.050781 c -1.41073,-1.0147 -2.30911,-1.610776 -2.69336,-1.785156 -1.09015,-0.50382 -2.106878,-0.508392 -3.048828,-0.01367 -0.69622,0.36565 -1.605095,1.330688 -2.728515,2.892578 l -0.931641,-0.671875 6.857422,-9.53125 c -1.15668,-0.79546 -2.129194,-1.436585 -2.652344,-1.703125 -0.637,-0.32747 -1.238551,-0.493094 -1.806641,-0.496093 -0.797269,-0.01138 -1.348733,0.193124 -1.652343,0.615234 l -0.445313,0.621094 -1.228515,-0.882813 5.40039,-7.507812 1.228516,0.882812 -0.455078,0.632813 c -0.51429,0.71501 -0.34832,1.625562 0.5,2.732422 0.39889,0.522699 1.415129,1.395823 2.943359,2.558593 l 3.087891,-4.294922 c 0.68711,-0.95528 1.326426,-1.788913 1.941406,-2.564453 -1.19227,-0.82293 -2.195633,-1.487282 -2.726563,-1.757812 -0.63702,-0.32747 -1.23856,-0.493094 -1.80664,-0.496094 -0.79725,-0.01139 -1.348734,0.193124 -1.652344,0.615234 l -0.445312,0.621094 -1.228516,-0.882812 5.400391,-7.507813 z m 7.4375,11.234375 c -1.040413,0.06995 -2.067062,0.3946 -3.078125,0.976563 -1.30111,0.74603 -2.825416,2.350363 -4.572266,4.814453 l 13.453125,9.677734 c 2.86291,-3.98028 3.728526,-7.345593 2.597656,-10.095703 -0.53921,-1.30523 -1.564672,-2.502664 -3.076172,-3.589844 -1.8159,-1.306131 -3.590198,-1.89978 -5.324218,-1.783203 z m 17.029297,10.423828 c -1.604308,-0.05555 -3.044449,0.339779 -4.320313,1.183594 -1.46285,0.9355 -3.109996,2.691798 -4.941406,5.273438 l 12.199219,8.814453 c 1.806419,1.3503 3.379823,1.092725 4.720703,-0.771485 2.13812,-2.97261 2.487405,-5.919907 1.046875,-8.841797 -0.69036,-1.41395 -1.733014,-2.620416 -3.126954,-3.623047 -1.5283,-1.099259 -3.154869,-1.762234 -4.880859,-1.984374 -0.235894,-0.02633 -0.468079,-0.04285 -0.697265,-0.05078 z"
       transform="translate(80.686731,308.90758)"
       id="path4201"
       inkscape:connector-curvature="0" />
    <path
       style="fill:#000000"
       d="M 261.26758,131.87891 246.5,154.41016 l 11.68555,7.65625 -5.08789,7.75976 -11.68164,-7.6582 -6.02149,9.18945 -26.63476,-17.45312 -6.56446,6.18945 86.88281,56.93945 a 5.6917686,5.4290719 0 0 0 5.31446,3.49024 5.6917686,5.4290719 0 0 0 5.6914,-5.42774 5.6917686,5.4290719 0 0 0 -5.6914,-5.42968 5.6917686,5.4290719 0 0 0 -0.49024,0.0234 l -8.28906,-5.43164 6.01953,-9.1875 -11.67578,-7.65234 5.08594,-7.75977 11.67773,7.6543 14.76758,-22.5332 -21.22851,-13.91211 -3.58399,5.46875 11.69531,7.66601 -5.08398,7.75977 -11.69727,-7.66797 -5.71093,8.71484 -2.85938,-1.87304 -9.26172,13.63476 -0.91211,-1.82812 7.84375,-13.33399 -2.57031,-1.68359 5.70898,-8.70899 -11.69531,-7.6621 5.08594,-7.75977 11.69141,7.66211 3.58398,-5.4668 -21.22656,-13.91015 z"
       transform="translate(80.686731,308.90758)"
       id="path4181"
       inkscape:connector-curvature="0" />
  </g>
</svg>
